<svg width="4" height="18" viewBox="0 0 4 18" fill="none" xmlns="http://www.w3.org/2000/svg">
<g clip-path="url(#clip0_75_464)">
<path d="M4 9C4 7.89543 3.10457 7 2 7C0.89543 7 0 7.89543 0 9C0 10.1046 0.89543 11 2 11C3.10457 11 4 10.1046 4 9Z" fill="black"/>
<path d="M4 16C4 14.8954 3.10457 14 2 14C0.89543 14 0 14.8954 0 16C0 17.1046 0.89543 18 2 18C3.10457 18 4 17.1046 4 16Z" fill="black"/>
<path d="M4 2C4 0.895431 3.10457 0 2 0C0.89543 0 0 0.895431 0 2C0 3.10457 0.89543 4 2 4C3.10457 4 4 3.10457 4 2Z" fill="black"/>
</g>
<defs>
<clipPath id="clip0_75_464">
<rect width="18" height="4" fill="white" transform="matrix(0 -1 1 0 0 18)"/>
</clipPath>
</defs>
</svg>
