<?xml version="1.0" encoding="utf-8"?>
<!-- Generator: Adobe Illustrator 24.3.0, SVG Export Plug-In . SVG Version: 6.00 Build 0)  -->
<svg version="1.1" id="Layer_1" xmlns="http://www.w3.org/2000/svg" xmlns:xlink="http://www.w3.org/1999/xlink" x="0px" y="0px"
	 viewBox="0 0 32 32" enable-background="new 0 0 32 32" xml:space="preserve">
<g>
	<g>
		<path d="M13.643,10.312c-0.084,0-0.16-0.012-0.237-0.024c0.009,0.222,0.001,0.444-0.044,0.662h8.892v14.68
			c0,1.989-1.612,3.601-3.601,3.601H9.361c-1.989,0-3.601-1.612-3.601-3.601V10.95h0.411c-0.108-0.129-0.175-0.281-0.225-0.441
			c-0.176-0.046-0.331-0.119-0.46-0.22c-0.071,0.01-0.14,0.022-0.218,0.022c-0.121,0-0.233-0.014-0.337-0.037
			c-0.04,0.067-0.07,0.142-0.07,0.226v15.13c0,2.486,2.015,4.5,4.5,4.5h9.292c2.486,0,4.5-2.015,4.5-4.5V10.103
			C20.034,10.353,16.814,10.317,13.643,10.312z"/>
	</g>
	<g>
		<path d="M22.763,26.319h-0.059c-0.248,0-0.45-0.202-0.45-0.45V13.956c0-0.248,0.202-0.45,0.45-0.45h2.085
			c2.317,0,4.202,1.885,4.202,4.202v2.382C28.991,23.524,26.197,26.319,22.763,26.319z M23.154,14.406v11
			c2.756-0.201,4.938-2.508,4.938-5.315v-2.382c0-1.821-1.481-3.303-3.303-3.303H23.154z"/>
	</g>
	<g>
		<path d="M10.622,2.768c1.063,0,2.051,0.515,2.642,1.379c0.272,0.397,0.721,0.634,1.201,0.634c0.288,0,0.568-0.085,0.809-0.245
			c0.407-0.271,0.882-0.414,1.373-0.414c0.902,0,1.736,0.491,2.175,1.281c0.263,0.474,0.76,0.768,1.296,0.768
			c0.14,0,0.279-0.02,0.414-0.06c0.188-0.055,0.384-0.083,0.583-0.083c0.047,0,0.095,0.002,0.143,0.005
			c1.015,0.068,1.86,0.916,1.922,1.932c0.036,0.579-0.162,1.13-0.557,1.55c-0.396,0.421-0.931,0.652-1.508,0.652l-0.683-0.003
			l-7.822-0.03c-0.001,0-0.002,0-0.003,0c-0.238,0-0.466,0.094-0.635,0.262c-0.169,0.169-0.264,0.398-0.264,0.637v1.76
			c0,0.347-0.283,0.63-0.63,0.63h-0.278c-0.347,0-0.63-0.283-0.63-0.63v-1.769c0-0.495-0.401-0.897-0.896-0.899l-4.06-0.014
			c-0.427-0.059-0.808-0.298-1.051-0.659c-0.253-0.377-0.32-0.838-0.189-1.298c0.167-0.588,0.685-0.999,1.319-1.049
			C5.333,7.101,5.373,7.1,5.412,7.1c0.139,0,0.274,0.02,0.415,0.062C5.947,7.198,6.072,7.216,6.2,7.216
			c0.446,0,0.861-0.219,1.084-0.572c0.155-0.245,0.205-0.536,0.147-0.816C7.486,4.132,8.896,2.768,10.622,2.768 M10.622,1.869
			c-2.243,0-4.092,1.819-4.092,4.062c0,0.006,0,0.013,0,0.019C6.631,6.161,6.414,6.317,6.2,6.317c-0.039,0-0.078-0.005-0.116-0.016
			c-0.217-0.065-0.438-0.1-0.672-0.1c-0.062,0-0.126,0.002-0.19,0.008c-0.994,0.078-1.84,0.74-2.113,1.699
			c-0.439,1.54,0.619,2.944,2.048,3.102c0,0,1.764,0.006,4.114,0.014v1.769c0,0.844,0.685,1.529,1.529,1.529h0.278
			c0.844,0,1.529-0.684,1.529-1.529v-1.76c4.388,0.015,9.892,0.033,9.956,0.033c0.451,0-0.569-0.101-0.186-0.281
			c1.061-0.499,1.778-1.608,1.7-2.876c-0.091-1.474-1.286-2.675-2.76-2.773c-0.068-0.005-0.136-0.007-0.203-0.007
			c-0.29,0-0.571,0.042-0.836,0.119c-0.054,0.016-0.108,0.023-0.161,0.023c-0.208,0-0.404-0.115-0.51-0.305
			c-0.578-1.04-1.687-1.743-2.961-1.743c-0.692,0-1.335,0.208-1.871,0.564c-0.096,0.064-0.204,0.095-0.311,0.095
			c-0.177,0-0.351-0.085-0.459-0.243C13.274,2.57,12.015,1.869,10.622,1.869L10.622,1.869z"/>
	</g>
	<g>
		<path d="M9.5,26.181c-0.276,0-0.5-0.224-0.5-0.5v-10c0-0.276,0.224-0.5,0.5-0.5s0.5,0.224,0.5,0.5v10
			C10,25.958,9.776,26.181,9.5,26.181z"/>
	</g>
	<g>
		<path d="M12.5,26.181c-0.276,0-0.5-0.224-0.5-0.5v-10c0-0.276,0.224-0.5,0.5-0.5s0.5,0.224,0.5,0.5v10
			C13,25.958,12.776,26.181,12.5,26.181z"/>
	</g>
	<g>
		<path d="M15.5,26.181c-0.276,0-0.5-0.224-0.5-0.5v-10c0-0.276,0.224-0.5,0.5-0.5s0.5,0.224,0.5,0.5v10
			C16,25.958,15.776,26.181,15.5,26.181z"/>
	</g>
	<g>
		<path d="M18.5,26.181c-0.276,0-0.5-0.224-0.5-0.5v-10c0-0.276,0.224-0.5,0.5-0.5s0.5,0.224,0.5,0.5v10
			C19,25.958,18.776,26.181,18.5,26.181z"/>
	</g>
</g>
</svg>
