<svg xmlns="http://www.w3.org/2000/svg" viewBox="0 0 24 24"><path d="M5.585,7.565A3.806,3.806,0,0,0,3.443,10.1a3.316,3.316,0,0,0,.57,2.84.515.515,0,1,0,.816-.629,2.294,2.294,0,0,1-.386-1.964A2.782,2.782,0,0,1,6.015,8.5a.515.515,0,1,0-.43-.937Z"/><path d="M22.479,3.09H20.91V1.521a.515.515,0,0,0-1.03,0V3.392l-1.091,1.09V3.643a.516.516,0,1,0-1.031,0v1.87l-.624.625c-2.4-1.514-4.792-.732-6.716,1.176C9.5,6.407,7.136,4.5,4.429,5.737A5.8,5.8,0,0,0,1.162,9.6,5.015,5.015,0,0,0,2.023,13.9a44.37,44.37,0,0,0,3.629,3.723L2.036,21.235v-1.92a.515.515,0,0,0-1.03,0v3.164a.519.519,0,0,0,.515.515H4.685a.515.515,0,0,0,0-1.03H2.765L6.4,18.327c1.832,1.719,3.536,3.246,3.672,3.369a.517.517,0,0,0,.688,0c.269-.241,6.6-5.913,8.052-7.8A5.019,5.019,0,0,0,19.675,9.6a5.65,5.65,0,0,0-1.712-2.836l.524-.524h1.87a.516.516,0,1,0,0-1.031h-.839l1.09-1.091h1.871a.515.515,0,1,0,0-1.03Zm-3.8,6.758A4,4,0,0,1,18,13.267c-1.21,1.568-6.216,6.121-7.58,7.351-1.363-1.23-6.37-5.782-7.579-7.351a3.992,3.992,0,0,1-.676-3.419,4.774,4.774,0,0,1,2.7-3.174c1.856-.852,3.947.277,5.162,1.723a.513.513,0,0,0,.4.188.519.519,0,0,0,.4-.188c1.362-1.62,3.537-2.669,5.567-1.51L10.8,12.471a.515.515,0,1,0,.729.729l5.7-5.7A4.632,4.632,0,0,1,18.674,9.848Z"/></svg>