<?xml version="1.0" encoding="utf-8"?>
<!-- Generator: Adobe Illustrator 16.0.0, SVG Export Plug-In . SVG Version: 6.00 Build 0)  -->
<!DOCTYPE svg PUBLIC "-//W3C//DTD SVG 1.1//EN" "http://www.w3.org/Graphics/SVG/1.1/DTD/svg11.dtd">
<svg version="1.1" id="Layer_1" xmlns="http://www.w3.org/2000/svg" xmlns:xlink="http://www.w3.org/1999/xlink" x="0px" y="0px"
	 width="128px" height="128px" viewBox="0 0 128 128" enable-background="new 0 0 128 128" xml:space="preserve">
<g>
	<g>
		<g>
			<polygon fill="#282D33" points="29.423,68.93 18.553,60.162 36.779,37.19 67.447,37.19 67.447,41.19 38.711,41.19 24.153,59.54 
				28.796,63.285 41.552,47.207 48.906,47.207 48.906,51.207 43.484,51.207 			"/>
		</g>
	</g>
	<g>
		<path fill="#282D33" d="M76.633,45.672c-6.984,0-12.666-5.722-12.666-12.755c0-7.032,5.682-12.753,12.666-12.753
			c6.98,0,12.659,5.721,12.659,12.753C89.292,39.95,83.613,45.672,76.633,45.672z M76.633,24.164c-4.778,0-8.666,3.927-8.666,8.753
			c0,4.828,3.888,8.755,8.666,8.755c4.774,0,8.659-3.927,8.659-8.755C85.292,28.091,81.407,24.164,76.633,24.164z"/>
	</g>
	<g>
		<g>
			<polygon fill="#282D33" points="24.33,123.524 15.209,112.93 36.806,94.03 38.639,84.101 42.573,84.827 40.486,96.124 
				20.829,113.326 24.73,117.858 45.936,99.303 46.958,93.76 50.892,94.486 49.616,101.396 			"/>
		</g>
	</g>
	<g>
		<path fill="#282D33" d="M73.213,124.78l-13.903-0.893l1.488-23.654l-15.927-16.06c-3.188-3.212-4.943-7.485-4.943-12.031
			c0-4.547,1.755-8.819,4.943-12.032l22.514-23.01l9.092,9.041v17.671h17.545v14.016l-31.315,0.001V61.864l-7.938,8.113
			c-0.598,0.602-0.908,1.347-0.908,2.165c0,0.807,0.311,1.564,0.875,2.133L75.102,94.81L73.213,124.78z M63.553,120.151l5.92,0.381
			l1.523-24.182L51.894,77.092c-1.312-1.323-2.034-3.081-2.034-4.949c0-1.869,0.731-3.636,2.059-4.973l14.788-15.113v21.772h23.315
			v-6.017H72.477V47.805l-5.053-5.024L47.721,62.918c-2.449,2.468-3.792,5.74-3.792,9.225c0,3.483,1.343,6.756,3.783,9.214
			l17.191,17.336L63.553,120.151z"/>
	</g>
	<g>
		<path fill="#282D33" d="M111.167,126.357v-4c7.076,0,12.833-5.813,12.833-12.957c0-7.146-5.757-12.959-12.833-12.959
			c-7.075,0-12.831,5.813-12.831,12.959h-4c0-9.352,7.551-16.959,16.831-16.959c9.282,0,16.833,7.607,16.833,16.959
			C128,118.751,120.449,126.357,111.167,126.357z"/>
	</g>
	<g>
		<rect x="11.146" y="76.389" fill="#282D33" width="16.423" height="4"/>
	</g>
	<g>
		<rect x="15.884" y="86.982" fill="#282D33" width="16.425" height="4"/>
	</g>
	<g>
		<rect y="76.389" fill="#282D33" width="6.453" height="4"/>
	</g>
	<g>
		<rect x="90.253" y="105.003" fill="#282D33" width="16.423" height="4"/>
	</g>
	<g>
		<rect x="94.218" y="115.441" fill="#282D33" width="16.425" height="4"/>
	</g>
	<g>
		<rect x="80.49" y="105.003" fill="#282D33" width="5.07" height="4"/>
	</g>
	<g>
		<g>
			<path fill="#282D33" d="M55.066,24.905c-0.304-8.253-6.945-14.717-15.12-14.717c-3.868,0-7.548,1.474-10.364,4.15l-2.756-2.898
				c3.562-3.387,8.221-5.252,13.12-5.252c10.336,0,18.733,8.156,19.117,18.569L55.066,24.905z"/>
		</g>
		<g>
			<path fill="#282D33" d="M59.141,26.831H2.052l-0.245-1.718c-0.081-0.571-0.119-1.057-0.119-1.529c0-5.4,3.984-9.882,9.148-10.619
				c2.279-6.735,8.547-11.322,15.718-11.322c4.262,0,8.386,1.685,11.472,4.656c0.671-0.074,1.306-0.11,1.921-0.11
				c10.335,0,18.733,8.156,19.118,18.569L59.141,26.831z M5.729,22.831h49.124c-1.237-7.236-7.431-12.643-14.906-12.643
				c-0.713,0-1.477,0.066-2.337,0.202l-1.063,0.169L35.82,9.765c-2.428-2.658-5.719-4.122-9.266-4.122
				c-5.816,0-10.851,3.985-12.245,9.693l-0.373,1.525l-1.741-0.002C8.845,16.932,6.095,19.522,5.729,22.831z"/>
		</g>
	</g>
</g>
</svg>
