<svg id="Layer_1" data-name="Layer 1" xmlns="http://www.w3.org/2000/svg" viewBox="0 0 128 128"><title>Artboard 2</title><path d="M36.939,55.065v58.386a6.541,6.541,0,0,0,1.926,4.627l0,0,0,0,0,0A6.541,6.541,0,0,0,43.5,120.01h41a6.575,6.575,0,0,0,6.559-6.559V55.063a6.081,6.081,0,0,0,1.66-1.179l.006-.006A6.013,6.013,0,0,0,94.5,49.62h0a6.05,6.05,0,0,0-5.823-6.032V41.41a6.533,6.533,0,0,0-1.926-4.627l-.006-.006a6.559,6.559,0,0,0-3.6-1.845,18.505,18.505,0,0,0-4.889-5.013c-2.167-1.7-4.189-3.282-4.321-6.566a10.759,10.759,0,0,0,.673-1.968,10.894,10.894,0,1,0-21.206,0,10.785,10.785,0,0,0,.672,1.969c-.131,3.284-2.153,4.868-4.32,6.566a18.517,18.517,0,0,0-4.889,5.013,6.556,6.556,0,0,0-3.6,1.845l-.006.006a6.534,6.534,0,0,0-1.925,4.627v2.178a6.021,6.021,0,0,0-4.039,1.763l-.005,0,0,0,0,0A6.02,6.02,0,0,0,33.5,49.62h0a6.019,6.019,0,0,0,1.772,4.264A6.084,6.084,0,0,0,36.939,55.065Zm50.782,58.386a3.233,3.233,0,0,1-3.221,3.22h-41a3.207,3.207,0,0,1-2.273-.941l-.006-.006a3.207,3.207,0,0,1-.941-2.273v-4.917H51.1a1.669,1.669,0,1,0,0-3.338H40.278V98.183h4.578a1.669,1.669,0,1,0,0-3.338H40.278V87.833H51.1a1.669,1.669,0,1,0,0-3.338H40.278V77.482h4.578a1.669,1.669,0,0,0,0-3.339H40.278V67.132H51.1a1.669,1.669,0,0,0,0-3.338H40.278V55.656H87.722ZM51.8,32.539c2.91-2.28,5.619-4.4,5.619-9.531v0a1.661,1.661,0,0,0-.243-.868,7.509,7.509,0,0,1-.528-1.512,7.614,7.614,0,0,1-.2-1.743,7.555,7.555,0,1,1,14.322,3.38,1.656,1.656,0,0,0-.176.745h-.007c0,5.128,2.709,7.251,5.619,9.531a25.088,25.088,0,0,1,2.678,2.311H49.119A25.116,25.116,0,0,1,51.8,32.539Zm-9.134,8.87a3.223,3.223,0,0,1,3.221-3.221H82.117a3.222,3.222,0,0,1,3.22,3.221v2.174H42.662Zm-5.823,8.21a2.685,2.685,0,0,1,.787-1.9l.006-.006a2.684,2.684,0,0,1,1.9-.787H88.463a2.709,2.709,0,0,1,2.7,2.7h0a2.7,2.7,0,0,1-2.7,2.7H39.537a2.709,2.709,0,0,1-2.7-2.7Z" style="fill:#231916"/></svg>