<svg xmlns="http://www.w3.org/2000/svg" width="24" height="24" viewBox="0 0 24 24">
  <g>
    <path d="M22,11.75a11.856,11.856,0,0,0-.079-1.312.5.5,0,0,0-.5-.438H21V7.5a2.5,2.5,0,0,0-1.7-2.356L20.5,3.268a.5.5,0,0,0-.6-.736l-2.247.849L16.435,1.252a.521.521,0,0,0-.87,0L14.351,3.381,12.1,2.532a.5.5,0,0,0-.6.736L12.7,5.144A2.492,2.492,0,0,0,11.008,7.42l0,.026c0,.018-.005.035-.005.054V10H4.075a.5.5,0,0,0-.5.438A11.856,11.856,0,0,0,3.5,11.75,9.365,9.365,0,0,0,3.661,13.4,2.634,2.634,0,0,0,2,16c0,1.583.706,4.673,2.408,4.991a.98.98,0,0,0,.184.018,1.7,1.7,0,0,0,.826-.286A1.3,1.3,0,0,1,6,20.5a1.508,1.508,0,0,1,.578.221,1.625,1.625,0,0,0,1,.273,2.017,2.017,0,0,0,1.3-.861A9.267,9.267,0,0,0,12.75,21c.2,0,.4-.018.6-.03A.513.513,0,0,0,13.5,21h5A2.5,2.5,0,0,0,21,18.5V15.911A9.189,9.189,0,0,0,22,11.75ZM20,7.5V8.587L15.949,6H18.5A1.5,1.5,0,0,1,20,7.5ZM14.4,4.468a.5.5,0,0,0,.612-.22L16,2.509l.992,1.739a.5.5,0,0,0,.612.22L18.847,4,18.21,5H13.79l-.637-1ZM13.5,6h.59L20,9.774V10H16.638L12.027,7.233A1.5,1.5,0,0,1,13.5,6ZM12,8.383,14.7,10H12ZM7.431,20.005a1.586,1.586,0,0,1-.387-.169A2.254,2.254,0,0,0,6,19.5a2.125,2.125,0,0,0-1.071.351,1.4,1.4,0,0,1-.336.157h0C3.684,19.838,3,17.459,3,16c0-.789.286-1.8,2.413-1.967a5.635,5.635,0,0,0,.1,1.047A.5.5,0,0,0,6,15.472a.479.479,0,0,0,.106-.012.5.5,0,0,0,.383-.593,4.959,4.959,0,0,1-.074-.844C8.7,14.142,9,15.191,9,16,9,17.568,8.4,19.851,7.431,20.005Zm1.934-.746a6.828,6.828,0,0,0,.319-.956,7.219,7.219,0,0,0,10.272-5.748A.5.5,0,0,0,19.515,12a.492.492,0,0,0-.553.442A6.233,6.233,0,0,1,9.89,17.3,9.154,9.154,0,0,0,10,16c0-1.294-.624-2.822-3.488-2.984a3.715,3.715,0,0,1,.17-.6.5.5,0,0,0-.932-.362,4.878,4.878,0,0,0-.255.963,6.85,6.85,0,0,0-.868.1A8.24,8.24,0,0,1,4.5,11.75c0-.221.012-.495.029-.75H20.971c.017.255.029.529.029.75A8.223,8.223,0,0,1,9.365,19.259ZM20,18.5A1.5,1.5,0,0,1,18.5,20H16.911A9.292,9.292,0,0,0,20,17.477Z"/>
    <path d="M16.5,12a.5.5,0,0,0-.5.5v1a.5.5,0,0,0,1,0v-1A.5.5,0,0,0,16.5,12Z"/>
    <path d="M10.5,12a.5.5,0,0,0-.5.5v1a.5.5,0,0,0,1,0v-1A.5.5,0,0,0,10.5,12Z"/>
    <path d="M13.5,13a.5.5,0,0,0-.5.5v1a.5.5,0,0,0,1,0v-1A.5.5,0,0,0,13.5,13Z"/>
  </g>
</svg>
