<svg width="25" height="25" viewBox="0 0 25 25" fill="none" xmlns="http://www.w3.org/2000/svg">
<g clip-path="url(#clip0_75_704)">
<path d="M23.6563 12.4997H22.85V6.18304H3.09172C2.27209 6.18194 1.48636 5.85586 0.906795 5.2763C0.327234 4.69674 0.00115175 3.911 4.93667e-05 3.09138C-0.00227527 2.68432 0.0775217 2.28098 0.234667 1.90548C0.391813 1.52998 0.623079 1.19003 0.914633 0.90596C1.19806 0.616446 1.53691 0.386993 1.91095 0.231291C2.285 0.0755889 2.68657 -0.00317121 3.09172 -0.00028992H20.9667V5.37679H23.6563V12.4997ZM3.09172 0.80596C2.79264 0.804081 2.49625 0.862518 2.22027 0.97778C1.94428 1.09304 1.69437 1.26276 1.48547 1.47679C1.2693 1.68626 1.0977 1.93726 0.980988 2.21472C0.864276 2.49218 0.804856 2.79037 0.806299 3.09138C0.806299 3.69916 1.04774 4.28206 1.47751 4.71183C1.69031 4.92463 1.94295 5.09343 2.22098 5.2086C2.49902 5.32377 2.79702 5.38304 3.09797 5.38304H20.1625V0.80596H3.09172ZM22.85 17.8768H23.6563V19.2205H22.85V17.8768Z" fill="#F5F5F5"/>
<path d="M23.6562 25H4.43542C3.25941 24.9989 2.13188 24.5312 1.30032 23.6997C0.468759 22.8681 0.0011032 21.7406 0 20.5646L0 3.09167H0.80625V20.5646C0.806802 21.5269 1.18934 22.4497 1.86982 23.1302C2.5503 23.8107 3.47307 24.1932 4.43542 24.1938H22.85V19.2208H23.6562V25Z" fill="#F5F5F5"/>
<path d="M25.0001 18.2792H13.8439C13.4313 18.2899 13.0207 18.2179 12.6363 18.0674C12.252 17.9169 11.9017 17.6909 11.6061 17.4029C11.3104 17.1148 11.0755 16.7705 10.915 16.3902C10.7546 16.0099 10.672 15.6013 10.672 15.1885C10.672 14.7758 10.7546 14.3672 10.915 13.9869C11.0755 13.6066 11.3104 13.2623 11.6061 12.9742C11.9017 12.6862 12.252 12.4602 12.6363 12.3097C13.0207 12.1592 13.4313 12.0872 13.8439 12.0979H25.0001V18.2792ZM13.8439 12.9021C13.2669 12.9448 12.7275 13.2041 12.3338 13.628C11.9401 14.0519 11.7213 14.609 11.7213 15.1875C11.7213 15.766 11.9401 16.3231 12.3338 16.747C12.7275 17.1709 13.2669 17.4302 13.8439 17.4729H24.1939V12.9021H13.8439ZM3.0918 2.6875H17.8772V3.49375H3.0918V2.6875Z" fill="#F5F5F5"/>
<path d="M13.8436 16.2625C13.6309 16.2625 13.4231 16.1995 13.2463 16.0813C13.0695 15.9632 12.9317 15.7953 12.8504 15.5989C12.769 15.4025 12.7477 15.1863 12.7892 14.9778C12.8307 14.7693 12.9331 14.5777 13.0834 14.4274C13.2338 14.277 13.4253 14.1746 13.6338 14.1332C13.8424 14.0917 14.0585 14.113 14.2549 14.1943C14.4514 14.2757 14.6193 14.4135 14.7374 14.5903C14.8555 14.767 14.9186 14.9749 14.9186 15.1875C14.918 15.4724 14.8046 15.7456 14.6031 15.947C14.4016 16.1485 14.1285 16.262 13.8436 16.2625ZM13.8436 14.9188C13.7723 14.9188 13.7039 14.9471 13.6535 14.9975C13.6031 15.0479 13.5748 15.1162 13.5748 15.1875C13.5748 15.4854 14.1123 15.4854 14.1123 15.1875C14.1123 15.1162 14.084 15.0479 14.0336 14.9975C13.9832 14.9471 13.9148 14.9188 13.8436 14.9188Z" fill="#F5F5F5"/>
</g>
<defs>
<clipPath id="clip0_75_704">
<rect width="25" height="25" fill="white"/>
</clipPath>
</defs>
</svg>
